# xmcd CD database file generated by OrangeCD 6.4
#
# Track frame offsets:
#	150
#	34267
#	54722
#	87972
#	127493
#	151993
#	175824
#	191777
#	208231
#	264385
#	279698
#	314130
#
# Disc length: 4592 seconds
#
# Revision: 0
# Processed by: cddbd v1.5.2PL0 Copyright (c) Steve Scherf et al.
# Submitted via: OrangeCD 6.4
#
DISCID=c011ee0c
DTITLE=Jimi Hendrix and Friends - Jammin' With Jimi
DYEAR=2008
DGENRE=Blues Rock
TTITLE0=Hear My Train A Comin'
TTITLE1=Spanish Castle Magic
TTITLE2=Jam Villanova Junction
TTITLE3=Jam 1 inc. Gypsy Boy/New Rising Sun (aka Baroque 1)/(aka Young Jim)
TTITLE4=Jam 1 Pt.2 Free Thunder
TTITLE5=Jam 1 Pt.3 Swifts Wing (aka Baroque 2)
TTITLE6=Jam 1 Pt.4 Down Mean Blues
TTITLE7=Jam 1 Pt.5 Fried Cola
TTITLE8=Jam 2 Flying-Virtuoso (aka Feels Good) (aka Spiked With Heady Dreams)
TTITLE9=Jam 2 Pt.2 Monday Morning Blues
TTITLE10=Jam 3 Lift Off
TTITLE11=Jam 4 Madagascar
EXTD=
EXTT0=
EXTT1=
EXTT2=
EXTT3=
EXTT4=
EXTT5=
EXTT6=
EXTT7=
EXTT8=
EXTT9=
EXTT10=
EXTT11=
PLAYORDER=
